<svg width="48" height="48" viewBox="0 0 48 48" fill="none" xmlns="http://www.w3.org/2000/svg">
  <path d="M24 6C21.794 6 20 7.794 20 10V14H12C9.794 14 8 15.794 8 18V30C8 32.206 9.794 34 12 34H20V38C20 40.206 21.794 42 24 42H28C30.206 42 32 40.206 32 38V34H36C38.206 34 40 32.206 40 30V18C40 15.794 38.206 14 36 14H32V10C32 7.794 30.206 6 28 6H24Z" stroke="#e8b270" stroke-width="2.5" stroke-linecap="round" stroke-linejoin="round"/>
  <path d="M20 22V26" stroke="#e8b270" stroke-width="2.5" stroke-linecap="round" stroke-linejoin="round"/>
  <path d="M28 22V26" stroke="#e8b270" stroke-width="2.5" stroke-linecap="round" stroke-linejoin="round"/>
</svg> 